<?xml version="1.0" standalone="no"?>
<!DOCTYPE svg PUBLIC "-//W3C//DTD SVG 20010904//EN"
 "http://www.w3.org/TR/2001/REC-SVG-20010904/DTD/svg10.dtd">
<svg version="1.0" xmlns="http://www.w3.org/2000/svg"
 width="398.000000pt" height="278.000000pt" viewBox="0 0 398.000000 278.000000"
 preserveAspectRatio="xMidYMid meet">

<g transform="translate(0.000000,278.000000) scale(0.100000,-0.100000)"
fill="#000000" stroke="none">
<path d="M2990 1988 l0 -783 70 -105 70 -105 0 888 0 887 -70 0 -70 0 0 -782z"/>
<path d="M949 2447 c-70 -47 -95 -118 -68 -196 11 -30 9 -35 -18 -63 -26 -25
-34 -28 -51 -19 -11 6 -39 11 -62 11 -34 0 -48 -6 -76 -34 -28 -28 -34 -41
-34 -78 0 -39 18 -82 42 -99 5 -3 -8 -40 -27 -82 -59 -127 -79 -230 -79 -392
0 -154 13 -225 65 -354 83 -208 251 -392 449 -491 99 -49 185 -78 273 -91 141
-21 152 -24 152 -39 0 -23 151 -17 255 10 412 109 711 464 746 888 7 80 6 82
-15 82 -28 0 -33 15 -29 81 l3 54 259 -382 259 -383 68 0 c38 0 69 2 69 4 0 3
-105 159 -233 348 -128 189 -327 481 -441 651 -201 297 -209 307 -240 307 -22
0 -40 8 -57 26 -37 40 -136 108 -216 148 -125 62 -229 88 -383 93 -143 5 -208
-2 -322 -38 l-68 -22 -22 28 c-44 57 -140 72 -199 32z m141 -6 c133 -70 90
-271 -58 -271 -115 0 -181 104 -131 206 36 74 119 103 189 65z m665 -30 c133
-35 324 -138 389 -210 l19 -21 -51 0 c-51 0 -52 -1 -52 -30 0 -16 -2 -30 -5
-30 -2 0 -28 18 -56 39 -75 56 -188 109 -282 130 -93 22 -185 32 -192 21 -2
-4 28 -10 68 -13 140 -11 293 -70 410 -157 l57 -43 0 -55 0 -55 -49 46 c-89
83 -214 149 -336 177 -77 18 -239 15 -320 -5 -217 -55 -380 -187 -481 -390
-223 -450 71 -980 579 -1040 46 -6 57 -11 58 -26 0 -11 1 -56 1 -101 l1 -83
-34 -3 c-48 -5 -169 16 -247 42 -450 154 -714 600 -631 1066 14 73 46 174 76
233 24 47 25 48 61 42 99 -16 173 100 119 186 -10 16 -7 23 15 45 l26 27 53
-27 c64 -31 89 -32 145 -5 60 29 89 78 88 150 l-1 56 71 22 c109 34 160 40
296 36 84 -2 151 -10 205 -24z m-80 -216 c102 -21 238 -92 318 -165 l67 -62 0
-174 0 -174 70 0 c68 0 70 1 70 25 0 14 4 25 9 25 9 0 21 -72 21 -127 l0 -35
-62 7 c-78 8 -344 8 -458 0 l-85 -6 -13 31 c-14 31 -57 60 -89 60 -30 0 -82
-38 -89 -65 -6 -24 -8 -25 -94 -25 -49 0 -92 -4 -95 -10 -4 -6 26 -10 84 -10
88 0 90 -1 103 -27 7 -15 28 -38 47 -50 l34 -23 -1 -80 c0 -44 4 -82 9 -85 5
-4 9 30 9 83 l0 88 33 15 c18 8 38 28 47 46 l15 33 91 0 c85 0 94 -2 126 -27
34 -28 36 -28 134 -22 54 4 134 7 177 8 l77 1 0 -27 c0 -90 -69 -263 -144
-358 -124 -159 -337 -274 -508 -275 l-48 0 0 79 0 80 -57 7 c-236 28 -425 194
-478 416 -8 35 -15 78 -15 96 0 30 2 32 34 32 l34 0 12 69 c16 97 59 182 130
256 183 190 475 191 663 3 58 -58 59 -58 119 -58 l60 0 -45 63 c-108 152 -276
237 -467 237 -162 0 -284 -52 -400 -169 -86 -86 -130 -166 -156 -280 -15 -67
-15 -79 0 -173 21 -122 50 -199 109 -281 88 -123 230 -206 381 -225 59 -7 60
-7 59 -39 -1 -18 -2 -51 -2 -73 l-1 -40 -48 0 c-132 0 -315 84 -432 199 -264
260 -291 648 -66 948 159 211 443 314 711 258z m-866 -39 c58 -31 69 -116 20
-165 -44 -45 -98 -44 -145 3 -26 26 -34 42 -34 71 0 29 8 45 34 71 38 38 77
44 125 20z m1520 -305 c118 -175 130 -203 131 -305 l0 -48 -31 6 c-17 3 -64 6
-104 6 l-73 0 -11 78 c-6 42 -18 99 -26 126 -16 53 -21 186 -6 186 14 0 78
-151 95 -227 21 -96 21 -113 -4 -113 -11 0 -20 -4 -20 -10 0 -5 23 -10 50 -10
50 0 70 16 28 22 -19 3 -23 13 -35 80 -14 85 -49 185 -91 262 -27 48 -41 116
-25 116 5 0 59 -76 122 -169z m-752 -293 c29 -32 34 -53 22 -88 -29 -82 -159
-57 -159 30 0 69 92 107 137 58z m837 -125 c-27 -234 -105 -404 -257 -560
-150 -155 -335 -243 -564 -268 l-63 -7 0 85 0 84 84 12 c190 26 336 106 462
253 84 98 147 236 162 357 7 56 7 56 44 59 20 2 42 10 48 18 7 8 30 14 51 14
l39 0 -6 -47z"/>
<path d="M944 2396 c-28 -28 -34 -42 -34 -75 0 -53 22 -97 60 -116 59 -30 118
-14 157 44 27 40 29 71 7 117 -20 42 -59 64 -115 64 -33 0 -47 -6 -75 -34z"/>
<path d="M724 1785 c11 -8 27 -15 35 -15 13 1 12 4 -3 15 -11 8 -27 15 -35 15
-13 -1 -12 -4 3 -15z"/>
<path d="M700 1740 c0 -8 25 -20 41 -20 20 0 7 18 -16 22 -14 3 -25 2 -25 -2z"/>
<path d="M695 1680 c28 -12 47 -12 40 0 -3 6 -18 10 -33 9 -24 0 -25 -1 -7 -9z"/>
<path d="M675 1630 c3 -5 17 -10 31 -10 14 0 22 4 19 10 -3 6 -17 10 -31 10
-14 0 -22 -4 -19 -10z"/>
<path d="M670 1580 c0 -5 12 -10 28 -9 24 0 25 1 7 9 -27 12 -35 12 -35 0z"/>
<path d="M665 1520 c3 -5 17 -10 31 -10 13 0 24 5 24 10 0 6 -14 10 -31 10
-17 0 -28 -4 -24 -10z"/>
<path d="M660 1470 c0 -5 14 -10 30 -10 17 0 30 5 30 10 0 6 -13 10 -30 10
-16 0 -30 -4 -30 -10z"/>
<path d="M685 1420 c-18 -8 -17 -9 8 -9 15 -1 27 4 27 9 0 12 -8 12 -35 0z"/>
<path d="M670 1360 c0 -12 17 -12 45 0 17 7 15 9 -12 9 -18 1 -33 -3 -33 -9z"/>
<path d="M690 1310 c-12 -8 -9 -10 12 -10 15 0 30 5 33 10 8 13 -25 13 -45 0z"/>
<path d="M713 1263 c-7 -2 -13 -8 -13 -13 0 -10 38 -1 46 11 6 10 -13 11 -33
2z"/>
<path d="M733 1213 c-7 -2 -13 -8 -13 -13 0 -10 38 -1 46 11 6 10 -13 11 -33
2z"/>
<path d="M753 1163 c-7 -2 -13 -8 -13 -13 0 -10 38 -1 46 11 6 10 -13 11 -33
2z"/>
<path d="M783 1117 c-22 -9 -32 -27 -15 -27 11 1 46 29 41 34 -2 2 -14 -1 -26
-7z"/>
<path d="M850 1515 c0 -203 103 -418 258 -540 108 -85 291 -158 313 -124 5 8
9 23 9 35 0 17 -10 23 -52 33 -109 24 -244 111 -320 205 -83 104 -137 258
-138 394 l0 62 -35 0 -35 0 0 -65z"/>
<path d="M1867 1268 l-76 -133 21 -22 c20 -21 30 -23 133 -23 104 0 113 2 133
23 12 13 22 27 22 31 0 13 -142 256 -150 256 -4 0 -42 -60 -83 -132z"/>
<path d="M706 2128 c-15 -13 -29 -37 -32 -55 -5 -27 -1 -37 24 -63 32 -32 56
-37 95 -19 52 24 60 87 18 130 -35 35 -71 37 -105 7z"/>
<path d="M1494 1545 c-4 -8 -4 -21 -1 -28 3 -8 1 -20 -3 -27 -14 -23 8 -52 38
-48 25 3 27 7 27 48 1 25 -3 51 -8 58 -13 17 -46 15 -53 -3z m46 -15 c0 -11
-6 -20 -14 -20 -18 0 -29 16 -21 30 11 18 35 11 35 -10z m8 -53 c4 -20 -25
-34 -40 -19 -15 15 -1 44 19 40 10 -2 19 -11 21 -21z"/>
<path d="M2280 1330 c0 -4 11 -10 25 -12 14 -3 25 -2 25 2 0 4 -11 10 -25 12
-14 3 -25 2 -25 -2z"/>
<path d="M2270 1279 c0 -5 4 -9 9 -9 5 0 16 -3 25 -6 9 -3 16 -2 16 4 0 5 -11
12 -25 14 -14 3 -25 1 -25 -3z"/>
<path d="M2253 1233 c9 -14 47 -24 47 -12 0 5 -4 9 -9 9 -5 0 -17 3 -27 7 -11
4 -15 3 -11 -4z"/>
<path d="M2250 1175 c14 -7 27 -11 30 -9 6 7 -22 24 -40 23 -9 0 -5 -6 10 -14z"/>
<path d="M2229 1129 c13 -11 26 -17 29 -14 7 6 -29 34 -43 34 -5 0 1 -9 14
-20z"/>
<path d="M2204 1085 c11 -8 25 -15 30 -15 6 0 2 7 -8 15 -11 8 -25 15 -30 15
-6 0 -2 -7 8 -15z"/>
<path d="M2170 1045 c7 -8 20 -15 28 -15 13 0 12 3 -4 15 -25 19 -40 19 -24 0z"/>
<path d="M2145 1000 c10 -11 20 -18 23 -15 7 6 -18 35 -31 35 -5 0 -2 -9 8
-20z"/>
<path d="M2115 960 c10 -11 20 -18 23 -15 7 6 -18 35 -31 35 -5 0 -2 -9 8 -20z"/>
<path d="M2077 924 c3 -7 9 -14 14 -14 14 0 10 17 -5 23 -10 4 -13 1 -9 -9z"/>
<path d="M2030 903 c0 -13 29 -38 35 -31 3 3 -4 13 -15 23 -11 10 -20 13 -20
8z"/>
<path d="M1990 873 c0 -13 29 -38 35 -31 3 3 -4 13 -15 23 -11 10 -20 13 -20
8z"/>
<path d="M1950 844 c0 -5 7 -18 15 -28 12 -16 15 -17 15 -4 0 8 -7 21 -15 28
-8 7 -15 9 -15 4z"/>
<path d="M1910 815 c0 -15 18 -40 24 -34 3 3 -1 14 -9 25 -8 10 -14 15 -15 9z"/>
<path d="M1860 794 c0 -5 7 -19 15 -30 8 -10 15 -14 15 -8 0 5 -7 19 -15 30
-8 10 -15 14 -15 8z"/>
<path d="M1822 755 c6 -14 13 -23 16 -21 7 7 -9 46 -18 46 -5 0 -4 -11 2 -25z"/>
<path d="M1770 748 c0 -7 5 -20 10 -28 8 -12 10 -11 10 7 0 12 -4 25 -10 28
-5 3 -10 0 -10 -7z"/>
<path d="M1720 738 c0 -7 5 -20 10 -28 8 -12 10 -11 10 7 0 12 -4 25 -10 28
-5 3 -10 0 -10 -7z"/>
<path d="M1671 728 c0 -7 4 -22 9 -33 8 -18 9 -17 9 7 1 15 -3 30 -9 33 -5 3
-10 0 -9 -7z"/>
<path d="M2322 788 c-21 -21 -13 -48 28 -88 42 -41 48 -58 28 -78 -16 -16 -34
-15 -53 4 -9 9 -19 13 -22 10 -12 -12 25 -38 53 -38 28 0 54 24 54 50 0 9 -18
32 -40 53 -41 39 -51 73 -26 82 7 3 23 -1 35 -9 11 -8 21 -11 21 -7 0 16 -24
33 -45 33 -12 0 -26 -5 -33 -12z"/>
<path d="M2479 771 c-54 -55 -33 -151 38 -170 114 -32 184 123 83 182 -44 26
-87 22 -121 -12z m129 -17 c31 -35 29 -84 -4 -118 -37 -36 -77 -34 -116 4 -26
27 -30 36 -25 67 13 80 91 106 145 47z"/>
<path d="M2690 702 l0 -102 45 0 c25 0 45 5 45 11 0 6 -14 9 -32 7 l-33 -3 -3
85 c-4 125 -22 126 -22 2z"/>
<path d="M2822 720 c-1 -47 2 -90 6 -97 14 -22 57 -32 83 -19 23 11 24 17 25
106 l1 95 -6 -88 c-6 -89 -15 -106 -52 -107 -30 0 -44 32 -50 114 l-6 81 -1
-85z"/>
<path d="M3019 771 c-63 -63 -20 -174 67 -174 42 0 84 17 84 34 0 5 -13 3 -30
-6 -37 -19 -70 -19 -98 1 -54 38 -47 124 12 149 31 13 82 10 92 -6 3 -5 11 -9
17 -9 7 1 1 10 -12 20 -36 31 -96 27 -132 -9z"/>
<path d="M3224 700 c0 -58 1 -81 3 -52 2 28 2 76 0 105 -2 28 -3 5 -3 -53z"/>
<path d="M3323 788 c-23 -11 -53 -64 -53 -93 0 -31 32 -77 63 -90 70 -29 137
16 137 92 0 80 -74 126 -147 91z m82 -13 c60 -24 72 -89 26 -136 -37 -37 -78
-38 -115 -4 -52 48 -22 138 52 154 1 1 18 -6 37 -14z"/>
<path d="M3658 794 c-5 -4 -8 -39 -8 -78 l-1 -71 -22 25 c-12 14 -41 48 -64
75 l-42 50 1 -100 c2 -86 2 -90 5 -27 2 39 8 72 13 72 4 0 34 -31 67 -69 l58
-70 3 50 c4 70 -2 152 -10 143z"/>
<path d="M3720 700 l0 -100 56 0 c30 0 53 4 50 9 -3 5 -24 8 -46 7 l-40 -2 0
42 0 43 48 4 47 3 -47 2 c-48 2 -48 2 -48 37 0 35 0 35 45 35 25 0 45 5 45 10
0 6 -25 10 -55 10 l-55 0 0 -100z"/>
<path d="M3872 788 c-23 -23 -13 -56 28 -88 22 -17 40 -39 40 -49 0 -38 -51
-56 -69 -24 -5 10 -13 14 -17 10 -13 -13 22 -39 52 -39 28 0 54 24 54 50 0 8
-20 34 -45 59 -25 24 -45 46 -45 48 0 2 7 11 16 20 15 14 18 14 40 0 13 -8 24
-12 24 -7 0 15 -24 32 -45 32 -12 0 -26 -5 -33 -12z"/>
<path d="M2173 465 c-27 -41 -28 -45 -9 -45 12 0 76 63 76 75 0 3 -10 5 -22 5
-15 0 -31 -12 -45 -35z"/>
<path d="M632 379 c-26 -13 -55 -39 -70 -62 -23 -34 -27 -51 -27 -112 0 -80
21 -123 80 -163 66 -46 177 -37 238 18 27 24 29 30 15 35 -10 4 -28 -2 -46
-15 -122 -91 -281 14 -250 166 23 111 182 160 258 79 18 -19 26 -22 37 -13 32
26 -69 87 -147 88 -26 0 -63 -9 -88 -21z"/>
<path d="M1430 384 c-46 -20 -68 -41 -92 -88 -29 -57 -27 -134 6 -190 37 -63
86 -91 161 -91 75 0 124 28 161 91 23 39 26 53 22 113 -3 56 -9 75 -32 106
-51 67 -149 93 -226 59z m151 -40 c66 -34 94 -121 64 -199 -23 -61 -72 -95
-139 -95 -166 0 -215 222 -66 298 48 25 89 23 141 -4z"/>
<path d="M2093 379 c-81 -40 -124 -150 -94 -242 21 -63 113 -127 181 -127 67
0 142 50 171 115 75 164 -97 334 -258 254z m122 -20 c73 -20 115 -77 115 -156
0 -57 -26 -104 -72 -134 -26 -16 -45 -19 -92 -16 -54 3 -62 7 -96 43 -22 24
-40 55 -44 77 -17 91 48 180 144 196 3 1 23 -4 45 -10z"/>
<path d="M2556 390 c-37 -12 -94 -66 -112 -107 -32 -75 -8 -173 56 -226 61
-52 167 -59 234 -18 39 24 76 88 76 130 l0 31 -75 0 c-68 0 -75 -2 -75 -20 0
-18 7 -20 55 -20 60 0 63 -5 40 -50 -21 -40 -63 -60 -128 -60 -191 0 -220 268
-34 310 46 10 101 -2 139 -30 30 -22 63 -20 56 2 -3 7 -28 25 -57 40 -56 29
-116 35 -175 18z"/>
<path d="M3095 382 c-79 -37 -124 -120 -111 -205 18 -117 125 -186 244 -157
59 14 112 53 95 70 -8 9 -20 6 -49 -14 -30 -20 -51 -26 -95 -26 -66 0 -111 26
-141 80 -25 45 -20 129 9 168 52 70 149 87 222 39 46 -31 61 -34 61 -12 0 8
-18 27 -41 42 -54 35 -137 42 -194 15z"/>
<path d="M3809 387 c-23 -18 -39 -52 -39 -83 0 -21 17 -43 75 -97 58 -54 75
-76 75 -97 0 -62 -80 -82 -123 -30 -20 23 -27 27 -36 16 -14 -17 10 -51 51
-72 81 -42 173 42 138 126 -7 17 -41 53 -76 81 -50 40 -64 56 -64 78 0 15 5
32 12 39 18 18 59 14 83 -8 19 -18 24 -19 34 -6 9 11 5 19 -19 40 -34 28 -84
34 -111 13z"/>
<path d="M20 375 c0 -11 11 -15 40 -15 l40 0 0 -170 c0 -163 1 -170 20 -170
19 0 20 7 20 170 l0 170 40 0 c29 0 40 4 40 15 0 12 -18 15 -100 15 -82 0
-100 -3 -100 -15z"/>
<path d="M272 208 l3 -183 103 -3 c95 -2 103 -1 100 15 -3 15 -16 18 -86 21
l-82 3 0 69 0 70 85 0 c78 0 85 2 85 20 0 18 -7 20 -85 20 l-85 0 0 60 0 60
85 0 c69 0 85 3 85 15 0 12 -18 15 -105 15 l-105 0 2 -182z"/>
<path d="M960 208 c0 -159 2 -188 15 -188 12 0 15 25 17 141 l3 141 100 -117
c55 -65 110 -130 122 -144 l22 -26 1 188 c0 160 -2 187 -15 187 -13 0 -15 -22
-15 -135 0 -74 -4 -135 -8 -135 -7 0 -55 54 -224 255 -17 19 -17 11 -18 -167z"/>
<path d="M1770 205 l0 -186 88 3 c69 2 87 6 87 18 0 12 -16 16 -73 18 l-73 3
3 164 c3 152 2 165 -14 165 -17 0 -18 -15 -18 -185z"/>
<path d="M2880 205 c0 -158 2 -185 15 -185 13 0 15 27 15 185 0 158 -2 185
-15 185 -13 0 -15 -27 -15 -185z"/>
<path d="M3547 383 c-6 -9 -133 -283 -153 -331 -13 -29 -13 -32 4 -32 13 0 27
19 47 60 l29 60 81 0 82 0 26 -60 c16 -37 32 -60 41 -60 9 0 16 3 16 7 0 10
-152 346 -160 356 -4 5 -10 5 -13 0z m60 -199 c-2 -3 -29 -4 -59 -2 l-54 3 29
65 30 65 30 -63 c16 -35 27 -65 24 -68z"/>
</g>
</svg>
